<svg id="Capa_1" data-name="Capa 1" xmlns="http://www.w3.org/2000/svg" viewBox="0 0 287.95 83.22"><defs><style>.cls-1,.cls-2{fill:#fff;}.cls-2{fill-rule:evenodd;}</style></defs><path class="cls-1" d="M268.77,27.62a.74.74,0,0,1-.52-.19.71.71,0,0,1-.23-.52V9.18a.62.62,0,0,1,.23-.49.69.69,0,0,1,.52-.22h3.69a1,1,0,0,1,.75.27c.17.19.28.31.34.39l4.44,7.6,4.44-7.6a4,4,0,0,1,.33-.39,1,1,0,0,1,.75-.27h3.69a.63.63,0,0,1,.5.22.61.61,0,0,1,.22.49V26.91a.7.7,0,0,1-.22.52.68.68,0,0,1-.5.19H283a.77.77,0,0,1-.53-.19.76.76,0,0,1-.19-.52V18l-2.5,4.33a2.28,2.28,0,0,1-.36.43.86.86,0,0,1-.64.22h-1.69a.8.8,0,0,1-.61-.22,2.83,2.83,0,0,1-.37-.43L273.66,18v8.87a.71.71,0,0,1-.23.52.64.64,0,0,1-.49.19Z" transform="translate(-0.24 -0.9)"/><path class="cls-2" d="M3.67,68a4.94,4.94,0,0,1,6.92-.73l5.5,4.44a4.9,4.9,0,1,1-6.17,7.62L4.41,74.89A4.91,4.91,0,0,1,3.67,68Z" transform="translate(-0.24 -0.9)"/><path class="cls-1" d="M110.13,26.72a.8.8,0,0,1-.5-.19.7.7,0,0,1-.22-.52V8.28a.61.61,0,0,1,.22-.49.69.69,0,0,1,.5-.22H118A9.26,9.26,0,0,1,124,9.26,5.7,5.7,0,0,1,126.12,14a5.77,5.77,0,0,1-.89,3.25,6.23,6.23,0,0,1-2.33,2.11l3.6,6.45a.64.64,0,0,1,.09.31.63.63,0,0,1-.17.43.57.57,0,0,1-.42.17h-4.69a1.18,1.18,0,0,1-.8-.25,1.37,1.37,0,0,1-.36-.49l-2.78-5.64h-2V26a.71.71,0,0,1-.23.52.7.7,0,0,1-.5.19Zm5.25-10.89H118a1.86,1.86,0,0,0,1.45-.52,2,2,0,0,0,.47-1.34,2.17,2.17,0,0,0-.47-1.4A1.73,1.73,0,0,0,118,12h-2.63Z" transform="translate(-0.24 -0.9)"/><path class="cls-1" d="M129.75,26.72a.8.8,0,0,1-.5-.19A.7.7,0,0,1,129,26V8.28a.61.61,0,0,1,.22-.49.69.69,0,0,1,.5-.22h13.6a.73.73,0,0,1,.53.22.61.61,0,0,1,.22.49v3.23a.67.67,0,0,1-.22.49.73.73,0,0,1-.53.22h-8.58v2.71h8a.73.73,0,0,1,.53.22.63.63,0,0,1,.22.49v2.95a.73.73,0,0,1-.22.52.78.78,0,0,1-.53.19h-8v2.77h8.8a.71.71,0,0,1,.53.22.67.67,0,0,1,.22.52V26a.7.7,0,0,1-.22.52.82.82,0,0,1-.53.19Z" transform="translate(-0.24 -0.9)"/><path class="cls-1" d="M146.16,26.72a.67.67,0,0,1-.44-.17.63.63,0,0,1-.17-.43.34.34,0,0,1,.06-.2l6.32-17.5a1.33,1.33,0,0,1,.37-.58,1.16,1.16,0,0,1,.8-.27h5.08a1.09,1.09,0,0,1,.8.27,1.22,1.22,0,0,1,.36.58l6.36,17.5a.6.6,0,0,1,0,.2.58.58,0,0,1-.2.43.57.57,0,0,1-.41.17h-4.28a1,1,0,0,1-.69-.22,1.47,1.47,0,0,1-.31-.41l-.86-2.3H152.3l-.87,2.3a1.25,1.25,0,0,1-.3.41.92.92,0,0,1-.69.22Zm7.41-7.55h4.14L155.63,13Z" transform="translate(-0.24 -0.9)"/><path class="cls-1" d="M168.29,26.72a.78.78,0,0,1-.5-.19.7.7,0,0,1-.22-.52V8.28a.61.61,0,0,1,.22-.49.68.68,0,0,1,.5-.22h4.61a.69.69,0,0,1,.52.22.62.62,0,0,1,.23.49V21.85h8a.69.69,0,0,1,.52.22.61.61,0,0,1,.23.49V26a.71.71,0,0,1-.23.52.79.79,0,0,1-.52.19Z" transform="translate(-0.24 -0.9)"/><path class="cls-1" d="M190.16,26.72a.8.8,0,0,1-.5-.19.7.7,0,0,1-.22-.52V8.28a.61.61,0,0,1,.22-.49.69.69,0,0,1,.5-.22h7.6a11.52,11.52,0,0,1,4.67.87,7,7,0,0,1,3.1,2.52,7.61,7.61,0,0,1,1.23,4.1c0,.79.05,1.48.05,2.08s0,1.29-.05,2.05a8.38,8.38,0,0,1-1.2,4.24,6.28,6.28,0,0,1-3,2.49,12.32,12.32,0,0,1-4.67.8Zm5.25-4.65h2.35a3.68,3.68,0,0,0,1.56-.3,2.24,2.24,0,0,0,1-.93,3.71,3.71,0,0,0,.39-1.67c0-.53,0-1,0-1.43s0-.83,0-1.25,0-.89,0-1.4a2.86,2.86,0,0,0-.89-2.19,3.32,3.32,0,0,0-2.19-.68h-2.22Z" transform="translate(-0.24 -0.9)"/><path class="cls-1" d="M210.35,26.72a.8.8,0,0,1-.5-.19.7.7,0,0,1-.22-.52V8.28a.61.61,0,0,1,.22-.49.69.69,0,0,1,.5-.22h7.91a9.26,9.26,0,0,1,5.91,1.69A5.7,5.7,0,0,1,226.34,14a5.77,5.77,0,0,1-.89,3.25,6.23,6.23,0,0,1-2.33,2.11l3.6,6.45a.64.64,0,0,1,.09.31.63.63,0,0,1-.17.43.57.57,0,0,1-.42.17h-4.69a1.18,1.18,0,0,1-.8-.25,1.37,1.37,0,0,1-.36-.49l-2.78-5.64h-2V26a.71.71,0,0,1-.23.52.7.7,0,0,1-.5.19Zm5.25-10.89h2.63a1.86,1.86,0,0,0,1.45-.52,2,2,0,0,0,.47-1.34,2.17,2.17,0,0,0-.47-1.4,1.73,1.73,0,0,0-1.45-.57H215.6Z" transform="translate(-0.24 -0.9)"/><path class="cls-1" d="M230,26.72a.8.8,0,0,1-.5-.19.7.7,0,0,1-.22-.52V8.28a.61.61,0,0,1,.22-.49.69.69,0,0,1,.5-.22h13.6a.73.73,0,0,1,.53.22.61.61,0,0,1,.22.49v3.23a.67.67,0,0,1-.22.49.73.73,0,0,1-.53.22H235v2.71h8a.73.73,0,0,1,.53.22.6.6,0,0,1,.22.49v2.95a.69.69,0,0,1-.22.52.78.78,0,0,1-.53.19h-8v2.77h8.79a.71.71,0,0,1,.53.22.67.67,0,0,1,.22.52V26a.7.7,0,0,1-.22.52.82.82,0,0,1-.53.19Z" transform="translate(-0.24 -0.9)"/><path class="cls-1" d="M246.38,26.72a.67.67,0,0,1-.44-.17.63.63,0,0,1-.17-.43.34.34,0,0,1,.06-.2l6.32-17.5a1.33,1.33,0,0,1,.37-.58,1.16,1.16,0,0,1,.8-.27h5.08a1.09,1.09,0,0,1,.8.27,1.22,1.22,0,0,1,.36.58l6.36,17.5a.6.6,0,0,1,0,.2.58.58,0,0,1-.2.43.57.57,0,0,1-.41.17h-4.28a1,1,0,0,1-.69-.22,1.47,1.47,0,0,1-.31-.41l-.86-2.3h-6.68l-.87,2.3a1.25,1.25,0,0,1-.3.41.92.92,0,0,1-.69.22Zm7.41-7.55h4.14L255.85,13Z" transform="translate(-0.24 -0.9)"/><path class="cls-1" d="M121.63,76a2.25,2.25,0,0,1-1.56-.53,2.59,2.59,0,0,1-.7-1.12L108.76,40.44a1.8,1.8,0,0,1-.05-.37,1.11,1.11,0,0,1,.32-.8,1.25,1.25,0,0,1,.87-.37h8.34a2,2,0,0,1,1.5.53,2.56,2.56,0,0,1,.7,1.06l6.35,22.13,6.36-22.13a2.56,2.56,0,0,1,.7-1.06,2,2,0,0,1,1.5-.53h8.34a1,1,0,0,1,.81.37,1.08,1.08,0,0,1,.33.8,1.35,1.35,0,0,1-.06.37l-10.55,34a2.46,2.46,0,0,1-.75,1.12,2.15,2.15,0,0,1-1.56.53Z" transform="translate(-0.24 -0.9)"/><path class="cls-1" d="M159.8,76.57a20.7,20.7,0,0,1-8-1.38,10.76,10.76,0,0,1-4.95-4,13.32,13.32,0,0,1-1.94-6.47c0-.75,0-1.56,0-2.45s0-1.69,0-2.44a12.47,12.47,0,0,1,2.05-6.47,11.44,11.44,0,0,1,5.06-4,20.07,20.07,0,0,1,7.8-1.38,19.63,19.63,0,0,1,7.75,1.38,11.39,11.39,0,0,1,5.12,4,12.37,12.37,0,0,1,2,6.47c.07.75.11,1.56.11,2.44s0,1.7-.11,2.45a13.21,13.21,0,0,1-1.94,6.47,10.69,10.69,0,0,1-5,4A20.33,20.33,0,0,1,159.8,76.57Zm0-7.48a3,3,0,0,0,2.75-1.17,7.16,7.16,0,0,0,.86-3.5c0-.53.05-1.26.05-2.18s0-1.64-.05-2.17a7.06,7.06,0,0,0-.86-3.45,3,3,0,0,0-2.75-1.22,2.91,2.91,0,0,0-2.69,1.22,7.36,7.36,0,0,0-.91,3.45c0,.53-.06,1.26-.06,2.17s0,1.65.06,2.18a7.45,7.45,0,0,0,.91,3.5A3,3,0,0,0,159.8,69.09Z" transform="translate(-0.24 -0.9)"/><path class="cls-1" d="M180.85,76a1.57,1.57,0,0,1-1-.37,1.48,1.48,0,0,1-.37-1V49.83a1.26,1.26,0,0,1,.37-.95,1.4,1.4,0,0,1,1-.43h8a1.36,1.36,0,0,1,1,.43,1.17,1.17,0,0,1,.43.95V74.66a1.37,1.37,0,0,1-.43,1,1.52,1.52,0,0,1-1,.37Zm.1-31a1.51,1.51,0,0,1-1-.37,1.47,1.47,0,0,1-.38-1V38.05a1.45,1.45,0,0,1,.38-1,1.39,1.39,0,0,1,1-.43h7.75a1.4,1.4,0,0,1,1,.43,1.37,1.37,0,0,1,.43,1v5.57a1.39,1.39,0,0,1-.43,1,1.52,1.52,0,0,1-1,.37Z" transform="translate(-0.24 -0.9)"/><path class="cls-1" d="M209.72,76.57a18.28,18.28,0,0,1-7.26-1.38,12.58,12.58,0,0,1-5.12-4.14,12.89,12.89,0,0,1-2.1-6.63c0-.57-.05-1.27-.05-2.12s0-1.58.05-2.18a12.68,12.68,0,0,1,2.1-6.63,11.52,11.52,0,0,1,5.12-4.14,17.78,17.78,0,0,1,7.26-1.43A18.37,18.37,0,0,1,216.5,49a14,14,0,0,1,4.58,2.76,12.87,12.87,0,0,1,2.64,3.29,7,7,0,0,1,.91,2.76,1.14,1.14,0,0,1-.43,1,1.36,1.36,0,0,1-1,.42h-8.66a1.4,1.4,0,0,1-.92-.26,3.42,3.42,0,0,1-.59-.85,4.41,4.41,0,0,0-1.24-1.7,3.26,3.26,0,0,0-4.36.59,5.94,5.94,0,0,0-.86,3.34,33.4,33.4,0,0,0,0,3.76,6.7,6.7,0,0,0,.86,3.4,2.92,2.92,0,0,0,2.48,1.06,3.11,3.11,0,0,0,2-.53,4.77,4.77,0,0,0,1.13-1.75,1.94,1.94,0,0,1,.54-.8,1.45,1.45,0,0,1,1-.31h8.66a1.36,1.36,0,0,1,1,.42,1.14,1.14,0,0,1,.43,1,6.59,6.59,0,0,1-.59,2,10.51,10.51,0,0,1-1.56,2.6,12.42,12.42,0,0,1-2.75,2.55,15.27,15.27,0,0,1-4.19,2A20.58,20.58,0,0,1,209.72,76.57Z" transform="translate(-0.24 -0.9)"/><path class="cls-1" d="M242.52,76.57q-6.72,0-10.71-3.4t-4-10.5V61.61a15.57,15.57,0,0,1,1.93-7.43,11.89,11.89,0,0,1,5.06-4.67,17.5,17.5,0,0,1,7.7-1.59,15.6,15.6,0,0,1,8.18,2,12.2,12.2,0,0,1,4.9,5.15,15.55,15.55,0,0,1,1.61,7.16v1.49a1.29,1.29,0,0,1-.43.95,1.41,1.41,0,0,1-1,.43H239.13v.31a7.4,7.4,0,0,0,.33,2.29,3.44,3.44,0,0,0,1.13,1.53,3,3,0,0,0,1.83.53,3,3,0,0,0,1.18-.21,2.77,2.77,0,0,0,.81-.53c.25-.25.46-.48.64-.69a2.42,2.42,0,0,1,.81-.58,2.24,2.24,0,0,1,1-.16h8.45a1.13,1.13,0,0,1,.81.32.85.85,0,0,1,.32.79,5.25,5.25,0,0,1-.92,2.34,10.35,10.35,0,0,1-2.58,2.6,14.37,14.37,0,0,1-4.3,2.12A19.78,19.78,0,0,1,242.52,76.57Zm-3.39-17.46h6.68V59a7,7,0,0,0-.38-2.44,2.91,2.91,0,0,0-1.13-1.49,3.42,3.42,0,0,0-3.66,0,2.91,2.91,0,0,0-1.13,1.49,7,7,0,0,0-.38,2.44Z" transform="translate(-0.24 -0.9)"/><path class="cls-1" d="M273.92,76.57a23,23,0,0,1-6.24-.74,15.15,15.15,0,0,1-4.25-2,8.72,8.72,0,0,1-2.37-2.38,5.25,5.25,0,0,1-.81-2.23,1.16,1.16,0,0,1,.32-1,1.32,1.32,0,0,1,.92-.42h7.8a.47.47,0,0,1,.16,0,.31.31,0,0,1,.22.11,3.67,3.67,0,0,1,1.29.69,9.32,9.32,0,0,0,1.4.85,4.6,4.6,0,0,0,1.88.37,3.52,3.52,0,0,0,1.62-.37,1.31,1.31,0,0,0,.75-1.17,1.6,1.6,0,0,0-.43-1.12,3.74,3.74,0,0,0-1.67-.9,28.26,28.26,0,0,0-4.14-1,21.94,21.94,0,0,1-4.84-1.53A9.28,9.28,0,0,1,262.08,61a7.27,7.27,0,0,1-1.24-4.29,7.06,7.06,0,0,1,1.46-4.19,10.3,10.3,0,0,1,4.3-3.29,17,17,0,0,1,7.11-1.33,19.26,19.26,0,0,1,5.59.74,15.69,15.69,0,0,1,4.15,1.86A8.72,8.72,0,0,1,286,52.91a4.53,4.53,0,0,1,1,2.28,1.28,1.28,0,0,1-.32,1,1.22,1.22,0,0,1-.86.37h-7.43a.72.72,0,0,1-.27-.16,4.2,4.2,0,0,1-1.4-.58,7.2,7.2,0,0,0-1.29-.85,3.33,3.33,0,0,0-1.78-.43,2.45,2.45,0,0,0-1.5.43,1.34,1.34,0,0,0-.54,1.11,1.67,1.67,0,0,0,.37,1.06,3.73,3.73,0,0,0,1.73.9A32,32,0,0,0,278,59a16.31,16.31,0,0,1,6,2,8.33,8.33,0,0,1,3.23,3.13,7.6,7.6,0,0,1,1,3.61,7.2,7.2,0,0,1-1.66,4.72,10.42,10.42,0,0,1-4.85,3.13A24.84,24.84,0,0,1,273.92,76.57Z" transform="translate(-0.24 -0.9)"/><path class="cls-2" d="M16.6,62.07a4.93,4.93,0,0,1,6.92-.74L37.59,72.67a4.91,4.91,0,1,1-6.18,7.63L17.34,69A4.9,4.9,0,0,1,16.6,62.07Z" transform="translate(-0.24 -0.9)"/><path class="cls-2" d="M25,54.2a4.94,4.94,0,0,1,6.92-.73L59.14,75.4A4.91,4.91,0,1,1,53,83L25.73,61.1A4.91,4.91,0,0,1,25,54.2Z" transform="translate(-0.24 -0.9)"/><path class="cls-2" d="M12.58,29.58a4.92,4.92,0,0,1,6.91-.73L70,69.51a4.91,4.91,0,1,1-6.18,7.63L13.31,36.48A4.9,4.9,0,0,1,12.58,29.58Z" transform="translate(-0.24 -0.9)"/><path class="cls-2" d="M1.33,5.39a4.93,4.93,0,0,1,6.91-.73l83.22,67a4.91,4.91,0,1,1-6.17,7.63l-83.23-67A4.9,4.9,0,0,1,1.33,5.39Z" transform="translate(-0.24 -0.9)"/><path class="cls-2" d="M23.18,8.37a4.92,4.92,0,0,1,6.91-.73L79.35,47.32A4.91,4.91,0,1,1,73.18,55L23.92,15.27A4.89,4.89,0,0,1,23.18,8.37Z" transform="translate(-0.24 -0.9)"/><path class="cls-2" d="M34.32,2.72A4.94,4.94,0,0,1,41.24,2L68.77,24.17A4.91,4.91,0,1,1,62.6,31.8L35.06,9.62A4.91,4.91,0,0,1,34.32,2.72Z" transform="translate(-0.24 -0.9)"/><path class="cls-2" d="M55.51,4.66a4.93,4.93,0,0,1,6.91-.73L76.19,15A4.91,4.91,0,0,1,70,22.65L56.24,11.56A4.9,4.9,0,0,1,55.51,4.66Z" transform="translate(-0.24 -0.9)"/><path class="cls-2" d="M77.91,7.58a4.93,4.93,0,0,1,6.91-.73l4.59,3.7a4.91,4.91,0,1,1-6.17,7.63l-4.59-3.7A4.89,4.89,0,0,1,77.91,7.58Z" transform="translate(-0.24 -0.9)"/></svg>