<svg id="Capa_1" data-name="Capa 1" xmlns="http://www.w3.org/2000/svg" xmlns:xlink="http://www.w3.org/1999/xlink" viewBox="0 0 301.32 87.82"><defs><style>.cls-1{fill:#fff;}.cls-10,.cls-2,.cls-3,.cls-4,.cls-5,.cls-6,.cls-7,.cls-8,.cls-9{fill-rule:evenodd;}.cls-2{fill:url(#Degradado_sin_nombre);}.cls-3{fill:url(#Degradado_sin_nombre_2);}.cls-4{fill:url(#Degradado_sin_nombre_3);}.cls-5{fill:url(#Degradado_sin_nombre_4);}.cls-6{fill:url(#Degradado_sin_nombre_5);}.cls-7{fill:url(#Degradado_sin_nombre_6);}.cls-8{fill:url(#Degradado_sin_nombre_7);}.cls-9{fill:url(#Degradado_sin_nombre_8);}.cls-10{fill:url(#Degradado_sin_nombre_9);}</style><linearGradient id="Degradado_sin_nombre" x1="3.83" y1="20.27" x2="17.52" y2="9.21" gradientTransform="matrix(1, 0, 0, -1, 0, 89.82)" gradientUnits="userSpaceOnUse"><stop offset="0" stop-color="#955be7"/><stop offset="1" stop-color="#54bab9"/></linearGradient><linearGradient id="Degradado_sin_nombre_2" x1="17.53" y1="25.51" x2="40.13" y2="7.25" xlink:href="#Degradado_sin_nombre"/><linearGradient id="Degradado_sin_nombre_3" x1="26.26" y1="33.71" x2="62.55" y2="4.4" xlink:href="#Degradado_sin_nombre"/><linearGradient id="Degradado_sin_nombre_4" x1="13.34" y1="59.4" x2="73.83" y2="10.55" xlink:href="#Degradado_sin_nombre"/><linearGradient id="Degradado_sin_nombre_5" x1="1.63" y1="84.64" x2="96.19" y2="8.27" xlink:href="#Degradado_sin_nombre"/><linearGradient id="Degradado_sin_nombre_6" x1="24.37" y1="81.53" x2="83.59" y2="33.7" xlink:href="#Degradado_sin_nombre"/><linearGradient id="Degradado_sin_nombre_7" x1="35.97" y1="87.42" x2="72.58" y2="57.85" xlink:href="#Degradado_sin_nombre"/><linearGradient id="Degradado_sin_nombre_8" x1="58.01" y1="85.4" x2="80.29" y2="67.4" xlink:href="#Degradado_sin_nombre"/><linearGradient id="Degradado_sin_nombre_9" x1="81.32" y1="82.35" x2="94.06" y2="72.07" xlink:href="#Degradado_sin_nombre"/></defs><path class="cls-1" d="M115.3,28.89a.73.73,0,0,1-.75-.75V9.39a.67.67,0,0,1,.23-.52.71.71,0,0,1,.52-.23h8.24a9.53,9.53,0,0,1,6.16,1.79,6,6,0,0,1,2.26,5,6.12,6.12,0,0,1-.93,3.44,6.51,6.51,0,0,1-2.43,2.23l3.76,6.83a.71.71,0,0,1,.09.32.67.67,0,0,1-.18.46.56.56,0,0,1-.43.17H127a1.17,1.17,0,0,1-.83-.26,1.45,1.45,0,0,1-.38-.52l-2.89-6h-2.08v6a.76.76,0,0,1-.23.55.7.7,0,0,1-.53.2Zm5.47-11.51h2.74a2,2,0,0,0,1.51-.55,2.17,2.17,0,0,0,.49-1.42,2.33,2.33,0,0,0-.49-1.48,1.79,1.79,0,0,0-1.51-.61h-2.74Z"/><path class="cls-1" d="M135.75,28.89a.72.72,0,0,1-.52-.2.74.74,0,0,1-.24-.55V9.39a.64.64,0,0,1,.24-.52.68.68,0,0,1,.52-.23h14.16a.71.71,0,0,1,.55.23.64.64,0,0,1,.23.52V12.8a.68.68,0,0,1-.23.52.72.72,0,0,1-.55.24H141v2.86h8.3a.78.78,0,0,1,.55.23.68.68,0,0,1,.23.52V20.3a.78.78,0,0,1-.23.55.85.85,0,0,1-.55.2H141V24h9.17a.82.82,0,0,1,.78.79v3.38a.74.74,0,0,1-.24.55.76.76,0,0,1-.54.2Z"/><path class="cls-1" d="M152.84,28.89a.67.67,0,0,1-.46-.17.71.71,0,0,1-.17-.46.32.32,0,0,1,.06-.2l6.59-18.53a1.39,1.39,0,0,1,.37-.6,1.19,1.19,0,0,1,.84-.29h5.29a1.1,1.1,0,0,1,.84.29,1.32,1.32,0,0,1,.38.6l6.62,18.53a.56.56,0,0,1,0,.2.65.65,0,0,1-.2.46.58.58,0,0,1-.44.17h-4.45a1,1,0,0,1-.72-.23,1.4,1.4,0,0,1-.32-.43l-.9-2.43h-7l-.89,2.43a1.59,1.59,0,0,1-.32.43.92.92,0,0,1-.72.23Zm7.72-8h4.31L162.7,14.4Z"/><path class="cls-1" d="M175.9,28.89a.74.74,0,0,1-.52-.2.76.76,0,0,1-.23-.55V9.39a.67.67,0,0,1,.23-.52.69.69,0,0,1,.52-.23h4.8a.74.74,0,0,1,.55.23.67.67,0,0,1,.23.52V23.74h8.36a.78.78,0,0,1,.55.23.69.69,0,0,1,.23.53v3.64a.76.76,0,0,1-.23.55.8.8,0,0,1-.55.2Z"/><path class="cls-1" d="M198.69,28.89a.73.73,0,0,1-.75-.75V9.39a.64.64,0,0,1,.23-.52.68.68,0,0,1,.52-.23h7.92a11.87,11.87,0,0,1,4.86.92,7.39,7.39,0,0,1,3.24,2.66A8.17,8.17,0,0,1,216,16.57c0,.83.06,1.56.06,2.2s0,1.36-.06,2.17a9,9,0,0,1-1.24,4.48,6.72,6.72,0,0,1-3.13,2.64,12.86,12.86,0,0,1-4.86.83ZM204.15,24h2.46a3.75,3.75,0,0,0,1.62-.31,2.36,2.36,0,0,0,1-1,3.91,3.91,0,0,0,.41-1.76c0-.56,0-1.06,0-1.51s0-.89,0-1.33,0-.93,0-1.48a3,3,0,0,0-.93-2.31,3.39,3.39,0,0,0-2.28-.72h-2.32Z"/><path class="cls-1" d="M219.72,28.89a.73.73,0,0,1-.75-.75V9.39a.67.67,0,0,1,.23-.52.71.71,0,0,1,.52-.23H228a9.5,9.5,0,0,1,6.15,1.79,6,6,0,0,1,2.26,5,6.12,6.12,0,0,1-.93,3.44A6.49,6.49,0,0,1,233,21.11l3.75,6.83a.67.67,0,0,1-.08.78.58.58,0,0,1-.44.17h-4.88a1.18,1.18,0,0,1-.84-.26,1.58,1.58,0,0,1-.38-.52l-2.89-6h-2.08v6a.76.76,0,0,1-.23.55.69.69,0,0,1-.52.2Zm5.47-11.51h2.75a1.94,1.94,0,0,0,1.5-.55,2.11,2.11,0,0,0,.49-1.42,2.28,2.28,0,0,0-.49-1.48,1.78,1.78,0,0,0-1.5-.61h-2.75Z"/><path class="cls-1" d="M240.17,28.89a.74.74,0,0,1-.52-.2.73.73,0,0,1-.23-.55V9.39a.64.64,0,0,1,.23-.52.69.69,0,0,1,.52-.23h14.17a.74.74,0,0,1,.55.23.67.67,0,0,1,.23.52V12.8a.71.71,0,0,1-.23.52.75.75,0,0,1-.55.24H245.4v2.86h8.3a.76.76,0,0,1,.55.23.68.68,0,0,1,.23.52V20.3a.78.78,0,0,1-.23.55.83.83,0,0,1-.55.2h-8.3V24h9.17a.8.8,0,0,1,.78.79v3.38a.76.76,0,0,1-.23.55.8.8,0,0,1-.55.2Z"/><path class="cls-1" d="M257.27,28.89a.68.68,0,0,1-.47-.17.71.71,0,0,1-.17-.46.32.32,0,0,1,.06-.2l6.59-18.53a1.32,1.32,0,0,1,.38-.6,1.16,1.16,0,0,1,.84-.29h5.29a1.13,1.13,0,0,1,.84.29,1.39,1.39,0,0,1,.37.6l6.62,18.53a.56.56,0,0,1,0,.2.65.65,0,0,1-.2.46.57.57,0,0,1-.43.17h-4.46a1,1,0,0,1-.72-.23,1.59,1.59,0,0,1-.32-.43l-.89-2.43h-7l-.9,2.43a1.4,1.4,0,0,1-.32.43.89.89,0,0,1-.72.23Zm7.72-8h4.31l-2.17-6.51Z"/><path class="cls-1" d="M280.35,28.89a.8.8,0,0,1-.55-.2.76.76,0,0,1-.23-.55V9.39a.67.67,0,0,1,.23-.52.74.74,0,0,1,.55-.23h3.85a1,1,0,0,1,.78.29c.17.19.29.32.35.4l4.62,8,4.63-8a5,5,0,0,1,.35-.4,1,1,0,0,1,.78-.29h3.84a.79.79,0,0,1,.75.75V28.14a.73.73,0,0,1-.23.55.68.68,0,0,1-.52.2h-4.34a.8.8,0,0,1-.55-.2.83.83,0,0,1-.2-.55V18.77l-2.6,4.57a2.57,2.57,0,0,1-.38.46.86.86,0,0,1-.66.23h-1.76a.84.84,0,0,1-.64-.23,2.57,2.57,0,0,1-.38-.46l-2.6-4.57v9.37a.76.76,0,0,1-.23.55.69.69,0,0,1-.52.2Z"/><path class="cls-1" d="M127.28,81.08a2.29,2.29,0,0,1-1.62-.57,2.57,2.57,0,0,1-.73-1.17L113.88,43.41a1.55,1.55,0,0,1-.06-.39,1.11,1.11,0,0,1,.34-.84,1.24,1.24,0,0,1,.9-.39h8.69a2.11,2.11,0,0,1,1.57.56,2.76,2.76,0,0,1,.73,1.12l6.61,23.41,6.62-23.41a2.76,2.76,0,0,1,.73-1.12,2.1,2.1,0,0,1,1.57-.56h8.69a1.05,1.05,0,0,1,.84.39,1.11,1.11,0,0,1,.34.84,2.08,2.08,0,0,1,0,.39l-11,35.93a2.46,2.46,0,0,1-.78,1.17,2.2,2.2,0,0,1-1.63.57Z"/><path class="cls-1" d="M167.06,81.64a21.36,21.36,0,0,1-8.36-1.46,11.33,11.33,0,0,1-5.16-4.27,14.25,14.25,0,0,1-2-6.85c0-.78-.05-1.64-.05-2.58s0-1.79.05-2.58a13.28,13.28,0,0,1,2.13-6.85,11.93,11.93,0,0,1,5.27-4.26,20.59,20.59,0,0,1,8.14-1.46,20.06,20.06,0,0,1,8.07,1.46,11.88,11.88,0,0,1,5.33,4.26,13.28,13.28,0,0,1,2.13,6.85c.07.79.11,1.65.11,2.58s0,1.8-.11,2.58a14.15,14.15,0,0,1-2,6.85,11.26,11.26,0,0,1-5.21,4.27A20.94,20.94,0,0,1,167.06,81.64Zm0-7.92a3.14,3.14,0,0,0,2.86-1.23,7.69,7.69,0,0,0,.89-3.71c0-.56.06-1.32.06-2.3s0-1.74-.06-2.3a7.56,7.56,0,0,0-.89-3.65,3.08,3.08,0,0,0-2.86-1.29,3,3,0,0,0-2.81,1.29,8,8,0,0,0-.95,3.65c0,.56-.06,1.33-.06,2.3s0,1.74.06,2.3a8.11,8.11,0,0,0,.95,3.71A3.08,3.08,0,0,0,167.06,73.72Z"/><path class="cls-1" d="M189,81.08a1.57,1.57,0,0,1-1.06-.4,1.52,1.52,0,0,1-.4-1.06V53.35a1.34,1.34,0,0,1,.4-1,1.44,1.44,0,0,1,1.06-.45h8.3a1.47,1.47,0,0,1,1.07.45,1.28,1.28,0,0,1,.45,1V79.62a1.44,1.44,0,0,1-.45,1.06,1.59,1.59,0,0,1-1.07.4Zm.11-32.84a1.56,1.56,0,0,1-1.06-.39,1.59,1.59,0,0,1-.39-1.07V40.89a1.59,1.59,0,0,1,.39-1.07,1.44,1.44,0,0,1,1.06-.45h8.08a1.43,1.43,0,0,1,1.06.45,1.47,1.47,0,0,1,.45,1.07v5.89a1.47,1.47,0,0,1-.45,1.07,1.54,1.54,0,0,1-1.06.39Z"/><path class="cls-1" d="M219.07,81.64a18.89,18.89,0,0,1-7.57-1.46,13,13,0,0,1-5.33-4.38,13.59,13.59,0,0,1-2.18-7c0-.6-.06-1.34-.06-2.24s0-1.67.06-2.3a13.35,13.35,0,0,1,2.18-7,12.16,12.16,0,0,1,5.33-4.38,18.24,18.24,0,0,1,7.57-1.51,18.81,18.81,0,0,1,7.07,1.18,14.19,14.19,0,0,1,4.76,2.92,13.1,13.1,0,0,1,2.75,3.48,7.27,7.27,0,0,1,.95,2.91,1.22,1.22,0,0,1-.44,1.07,1.4,1.4,0,0,1-1,.45h-9a1.46,1.46,0,0,1-1-.28,3.54,3.54,0,0,1-.61-.9,4.86,4.86,0,0,0-1.29-1.8,3.39,3.39,0,0,0-4.55.62,6.42,6.42,0,0,0-.89,3.54,32.75,32.75,0,0,0,0,4,7.15,7.15,0,0,0,.89,3.59,3,3,0,0,0,2.58,1.13,3.23,3.23,0,0,0,2.08-.56,5.19,5.19,0,0,0,1.18-1.86,2.06,2.06,0,0,1,.56-.84,1.52,1.52,0,0,1,1-.33h9a1.43,1.43,0,0,1,1,.44,1.23,1.23,0,0,1,.44,1.07,7.15,7.15,0,0,1-.61,2.13A11.48,11.48,0,0,1,232.36,76a13.1,13.1,0,0,1-2.86,2.7,15.89,15.89,0,0,1-4.37,2.13A21,21,0,0,1,219.07,81.64Z"/><path class="cls-1" d="M253.25,81.64q-7,0-11.16-3.6t-4.21-11.11V65.81a16.71,16.71,0,0,1,2-7.86A12.44,12.44,0,0,1,245.17,53a18,18,0,0,1,8-1.68,16,16,0,0,1,8.52,2.07,12.77,12.77,0,0,1,5.11,5.45,16.73,16.73,0,0,1,1.68,7.58V68a1.4,1.4,0,0,1-.45,1,1.44,1.44,0,0,1-1.06.45H249.71v.33a8.18,8.18,0,0,0,.34,2.42,3.67,3.67,0,0,0,1.18,1.62,3.15,3.15,0,0,0,1.9.57,3,3,0,0,0,1.24-.23,2.74,2.74,0,0,0,.84-.56,8.45,8.45,0,0,0,.67-.73,2.58,2.58,0,0,1,.84-.62,2.39,2.39,0,0,1,1-.17h8.81a1.18,1.18,0,0,1,.84.34,1,1,0,0,1,.34.84,5.6,5.6,0,0,1-1,2.47,10.66,10.66,0,0,1-2.69,2.75,14.71,14.71,0,0,1-4.49,2.25A20.32,20.32,0,0,1,253.25,81.64Zm-3.54-18.47h7v-.11a7.53,7.53,0,0,0-.39-2.58,3.07,3.07,0,0,0-1.18-1.57,3.49,3.49,0,0,0-3.82,0,3,3,0,0,0-1.17,1.57,7.28,7.28,0,0,0-.4,2.58Z"/><path class="cls-1" d="M286,81.64a23.53,23.53,0,0,1-6.5-.79A15.48,15.48,0,0,1,275,78.77a9,9,0,0,1-2.47-2.52,5.58,5.58,0,0,1-.84-2.36,1.2,1.2,0,0,1,.33-1,1.35,1.35,0,0,1,1-.45h8.13a.43.43,0,0,1,.17.06.33.33,0,0,1,.22.11,3.86,3.86,0,0,1,1.35.73,8.93,8.93,0,0,0,1.46.9,4.6,4.6,0,0,0,2,.39,3.53,3.53,0,0,0,1.68-.39,1.39,1.39,0,0,0,.79-1.24,1.72,1.72,0,0,0-.45-1.18,3.83,3.83,0,0,0-1.74-1,29,29,0,0,0-4.32-1.07,22.8,22.8,0,0,1-5.05-1.62,9.76,9.76,0,0,1-3.59-3,7.75,7.75,0,0,1-1.29-4.55,7.55,7.55,0,0,1,1.52-4.43,10.79,10.79,0,0,1,4.49-3.48,17.57,17.57,0,0,1,7.4-1.4,19.78,19.78,0,0,1,5.83.78,16,16,0,0,1,4.32,2,9.41,9.41,0,0,1,2.69,2.52,4.89,4.89,0,0,1,1,2.42,1.35,1.35,0,0,1-.34,1.06,1.2,1.2,0,0,1-.89.4h-7.74a.7.7,0,0,1-.28-.17,4.11,4.11,0,0,1-1.46-.62,7.93,7.93,0,0,0-1.35-.9,3.45,3.45,0,0,0-1.85-.45,2.6,2.6,0,0,0-1.57.45,1.46,1.46,0,0,0-.56,1.18,1.78,1.78,0,0,0,.39,1.12,3.8,3.8,0,0,0,1.8,1,33.3,33.3,0,0,0,4.43,1,17,17,0,0,1,6.28,2.08,8.62,8.62,0,0,1,3.36,3.31,8,8,0,0,1,1,3.82,7.64,7.64,0,0,1-1.74,5,10.7,10.7,0,0,1-5,3.31A25.31,25.31,0,0,1,286,81.64Z"/><path class="cls-2" d="M3.83,69.55A5.1,5.1,0,0,1,11,68.79l5.73,4.62a5.12,5.12,0,1,1-6.43,8L4.59,76.75A5.13,5.13,0,0,1,3.83,69.55Z"/><path class="cls-3" d="M17.53,64.31a5.1,5.1,0,0,1,7.19-.76L39.37,75.37a5.12,5.12,0,0,1-6.43,8L18.3,71.5A5.1,5.1,0,0,1,17.53,64.31Z"/><path class="cls-4" d="M26.26,56.11a5.11,5.11,0,0,1,7.19-.77L61.79,78.22a5.12,5.12,0,0,1-6.43,8L27,63.3A5.11,5.11,0,0,1,26.26,56.11Z"/><path class="cls-5" d="M13.34,30.42a5.12,5.12,0,0,1,7.19-.77L73.06,72.08a5.11,5.11,0,1,1-6.42,8L14.11,37.61A5.11,5.11,0,0,1,13.34,30.42Z"/><path class="cls-6" d="M1.63,5.18a5.13,5.13,0,0,1,7.2-.76L95.42,74.35a5.11,5.11,0,1,1-6.42,8L2.4,12.38A5.13,5.13,0,0,1,1.63,5.18Z"/><path class="cls-7" d="M24.37,8.29a5.12,5.12,0,0,1,7.2-.76L82.82,48.92a5.12,5.12,0,1,1-6.43,8L25.14,15.49A5.13,5.13,0,0,1,24.37,8.29Z"/><path class="cls-8" d="M36,2.4a5.1,5.1,0,0,1,7.19-.76L71.81,24.78a5.11,5.11,0,0,1-6.42,8L36.73,9.6A5.12,5.12,0,0,1,36,2.4Z"/><path class="cls-9" d="M58,4.42a5.1,5.1,0,0,1,7.19-.76L79.53,15.23a5.12,5.12,0,0,1-6.43,8L58.77,11.61A5.1,5.1,0,0,1,58,4.42Z"/><path class="cls-10" d="M81.32,7.47a5.12,5.12,0,0,1,7.19-.77l4.78,3.86a5.12,5.12,0,1,1-6.43,8l-4.77-3.86A5.11,5.11,0,0,1,81.32,7.47Z"/></svg>